<svg xmlns="http://www.w3.org/2000/svg" xmlns:xlink="http://www.w3.org/1999/xlink" width="1290" zoomAndPan="magnify" viewBox="0 0 967.5 963.749971" height="1285" preserveAspectRatio="xMidYMid meet" version="1.0"><defs><clipPath id="46bfce6939"><path d="M 0 0.125 L 967 0.125 L 967 963.375 L 0 963.375 Z M 0 0.125 " clip-rule="nonzero"/></clipPath></defs><g clip-path="url(#46bfce6939)"><path fill="#ffffff" d="M 0 0.125 L 967 0.125 L 967 963.375 L 0 963.375 Z M 0 0.125 " fill-opacity="1" fill-rule="nonzero"/><path fill="#000000" d="M 0 0.125 L 967 0.125 L 967 963.375 L 0 963.375 Z M 0 0.125 " fill-opacity="1" fill-rule="nonzero"/></g><path fill="#ffffff" d="M 471.878906 2.898438 C 362.886719 5.371094 259.515625 44.5 175.410156 115.039062 C 147.148438 138.726562 114.691406 173.882812 94 203.269531 C 63.191406 246.972656 40.703125 293.222656 25.488281 343.820312 C 15.441406 377.402344 9.292969 412.261719 6.671875 450.867188 C 4.945312 476.652344 6.371094 514.882812 10.121094 543.59375 C 21.363281 629.875 57.71875 713.753906 113.117188 781.21875 C 176.757812 858.730469 261.613281 913.976562 357.113281 940.0625 C 369.035156 943.363281 391.671875 948.308594 402.917969 950.183594 C 414.535156 952.132812 439.871094 955.054688 451.867188 955.878906 C 466.332031 956.855469 498.34375 956.855469 513.109375 955.878906 C 587.097656 951.007812 657.859375 929.644531 721.125 893.0625 C 814.453125 839.089844 886.492188 755.808594 926.296875 655.734375 C 960.476562 569.753906 968.800781 477.101562 950.507812 385.050781 C 934.242188 303.417969 895.5625 225.980469 839.492188 163.164062 C 814.902344 135.503906 791.289062 114.289062 760.480469 91.953125 C 705.910156 52.371094 640.09375 24.113281 572.328125 11.066406 C 541.96875 5.222656 503.8125 2.148438 471.878906 2.898438 Z M 527.425781 33.332031 C 610.035156 42.476562 683.121094 70.4375 746.988281 117.363281 C 754.410156 122.761719 772.625 137.003906 773.601562 138.050781 C 773.824219 138.351562 777.046875 141.199219 780.722656 144.425781 C 795.261719 157.167969 813.855469 176.433594 828.769531 194.273438 C 852.910156 223.132812 877.121094 262.039062 892.261719 296.296875 C 926.671875 374.105469 938.589844 457.3125 927.195312 540.96875 C 915.425781 627.773438 878.546875 708.65625 820.527344 774.847656 C 766.929688 836.015625 700.289062 880.242188 623.453125 905.730469 C 591.519531 916.300781 557.113281 923.347656 521.355469 926.644531 C 506.585938 927.996094 471.878906 928.445312 456.140625 927.46875 C 396.167969 923.648438 342.722656 909.855469 288.226562 883.992188 C 249.394531 865.550781 207.265625 836.617188 176.160156 807.082031 C 134.929688 767.878906 104.195312 726.199219 79.832031 676.648438 C 56.144531 628.300781 42.054688 578.300781 36.207031 521.40625 C 34.332031 503.488281 34.332031 456.339844 36.207031 438.273438 C 42.203125 380.175781 55.921875 331.675781 80.582031 281.601562 C 102.621094 236.925781 128.933594 200.121094 165.363281 163.089844 C 192.050781 135.953125 224.957031 110.765625 260.113281 90.453125 C 318.285156 56.945312 384.476562 36.929688 453.515625 32.132812 C 464.234375 31.308594 517.308594 32.28125 527.425781 33.332031 Z M 527.425781 33.332031 " fill-opacity="1" fill-rule="nonzero"/><path fill="#ffffff" d="M 418.285156 139.625 C 411.3125 140.375 392.945312 144.199219 384.027344 146.671875 C 330.277344 162.113281 273.160156 190.527344 208.765625 233.929688 C 179.832031 253.417969 154.871094 273.882812 132.304688 296.519531 C 109.292969 319.609375 94.675781 339.171875 82.605469 362.785156 C 71.210938 385.125 68.8125 396.96875 72.039062 415.632812 C 76.234375 440.070312 96.550781 467.058594 118.589844 477.628906 C 123.984375 480.25 126.085938 480.851562 131.03125 481.148438 C 136.953125 481.601562 137.027344 481.523438 144.148438 478.078125 C 157.417969 471.554688 173.160156 458.289062 192.050781 437.746094 C 197.222656 432.050781 198.273438 430.402344 200.222656 425.003906 C 201.421875 421.554688 202.394531 417.359375 202.394531 415.632812 C 202.394531 412.636719 202.019531 412.109375 194.597656 404.613281 C 181.628906 391.496094 172.410156 377.855469 169.785156 367.808594 C 168.363281 362.1875 168.363281 353.792969 169.785156 348.84375 C 172.636719 339.25 186.503906 323.507812 200.144531 314.4375 C 216.1875 303.71875 243.097656 289.550781 290.101562 266.984375 C 348.195312 239.027344 375.253906 227.480469 394.894531 222.085938 C 399.992188 220.660156 400.367188 220.660156 400.890625 221.859375 C 401.191406 222.535156 401.417969 233.402344 401.34375 245.996094 C 401.34375 270.433594 400.441406 281.304688 396.917969 302.890625 C 392.570312 329.277344 389.199219 339.097656 363.9375 399.292969 C 347.445312 438.574219 344.820312 447.117188 344.820312 460.910156 C 344.894531 484.074219 352.691406 507.988281 368.058594 531.972656 C 378.703125 548.691406 388.148438 560.308594 413.785156 588.195312 C 450.964844 628.75 462.585938 644.566406 471.957031 667.277344 C 475.253906 675.226562 475.554688 676.5 475.855469 683.546875 C 476.078125 689.394531 475.855469 692.015625 474.878906 695.015625 C 469.933594 709.855469 458.6875 717.804688 438.523438 720.578125 C 428.402344 722 405.539062 721.777344 396.167969 720.203125 C 374.730469 716.605469 368.882812 713.53125 341 691.042969 C 325.632812 678.671875 313.414062 676.050781 297.894531 681.898438 C 282.828125 687.59375 266.785156 704.160156 256.59375 724.625 C 247.972656 741.941406 245.722656 755.582031 250.070312 764.128906 C 254.042969 771.925781 264.6875 783.320312 275.480469 791.339844 C 303.519531 812.253906 344.222656 829.421875 372.480469 832.195312 C 403.066406 835.265625 431.550781 822 465.433594 789.089844 C 475.777344 779.046875 503.289062 748.085938 512.058594 736.542969 C 531.550781 711.132812 545.117188 684.519531 551.265625 659.859375 C 554.5625 646.738281 555.085938 642.015625 555.085938 626.050781 C 555.085938 611.882812 554.9375 610.308594 553.363281 605.8125 C 547.292969 588.644531 535.074219 570.355469 509.0625 539.46875 C 482.601562 508.136719 468.507812 491.121094 464.308594 485.5 C 456.0625 474.554688 447.21875 460.835938 443.246094 452.890625 C 435.449219 436.921875 433.574219 427.703125 434.773438 410.535156 C 436.347656 388.574219 442.347656 367.882812 457.339844 332.800781 C 481.625 275.757812 486.273438 260.6875 487.023438 235.652344 C 487.546875 220.660156 486.574219 210.839844 483.425781 198.023438 C 478.550781 177.933594 471.507812 164.140625 461.011719 153.945312 C 449.242188 142.476562 435.375 137.828125 418.285156 139.625 Z M 418.285156 139.625 " fill-opacity="1" fill-rule="nonzero"/><path fill="#ffffff" d="M 665.28125 279.953125 C 655.535156 283.175781 648.113281 291.046875 645.714844 300.792969 C 644.589844 305.367188 644.589844 306.039062 645.714844 310.539062 C 647.289062 316.683594 650.664062 322.308594 656.136719 327.78125 C 662.207031 333.925781 667.304688 336.25 674.277344 336.101562 C 687.84375 335.800781 696.164062 328.453125 696.988281 316.085938 C 697.4375 309.113281 696.164062 303.417969 692.566406 296.296875 C 686.195312 283.476562 675.027344 276.804688 665.28125 279.953125 Z M 665.28125 279.953125 " fill-opacity="1" fill-rule="nonzero"/><path fill="#ffffff" d="M 818.203125 284.75 C 806.058594 287.300781 794.289062 298.542969 789.191406 312.488281 C 787.765625 316.234375 787.617188 318.257812 787.691406 327.480469 C 787.765625 333.328125 788.515625 344.570312 789.417969 352.589844 C 790.242188 360.539062 791.140625 372.605469 791.367188 379.429688 L 791.816406 391.796875 L 789.792969 394.195312 C 788.742188 395.46875 784.542969 398.242188 780.496094 400.265625 C 769.027344 406.1875 767.601562 408.511719 767.601562 421.179688 L 767.601562 428.976562 L 779.222656 428.828125 C 785.667969 428.753906 790.992188 428.828125 791.140625 428.976562 C 791.289062 429.128906 791.816406 435.875 792.265625 443.894531 C 792.714844 451.914062 793.464844 460.6875 793.839844 463.382812 C 794.964844 470.28125 802.683594 499.140625 804.484375 502.890625 C 807.109375 508.4375 812.578125 510.535156 820.75 509.109375 C 830.644531 507.386719 843.3125 498.390625 844.511719 492.320312 C 845.488281 486.773438 843.3125 475.902344 836.941406 455.8125 C 829.746094 433.023438 829.597656 425.230469 836.042969 418.558594 C 837.316406 417.207031 839.566406 415.785156 841.066406 415.335938 C 842.488281 414.960938 850.585938 414.285156 859.054688 413.910156 C 869.773438 413.460938 875.695312 412.9375 878.546875 412.035156 C 888.816406 408.886719 903.359375 399.144531 908.53125 392.019531 C 911.304688 388.273438 911.304688 387.824219 908.753906 386.847656 C 898.484375 382.949219 876.222656 379.578125 856.433594 378.976562 C 849.011719 378.753906 841.816406 378.230469 840.464844 377.777344 C 837.617188 376.953125 833.042969 371.257812 830.496094 365.636719 C 827.871094 359.636719 827.796875 354.539062 830.269531 346.746094 C 832.21875 340.671875 832.445312 339.171875 832.371094 329.578125 C 832.371094 317.058594 830.570312 304.617188 827.496094 295.097656 C 824.421875 285.351562 822.925781 283.703125 818.203125 284.75 Z M 818.203125 284.75 " fill-opacity="1" fill-rule="nonzero"/><path fill="#ffffff" d="M 276.457031 328.003906 C 271.433594 330.628906 263.9375 337.300781 248.796875 352.367188 C 231.480469 369.683594 229.757812 372.007812 226.609375 382.800781 C 225.332031 387 225.257812 396.445312 225.035156 538.421875 L 224.882812 689.617188 L 226.832031 690.066406 C 228.855469 690.59375 233.503906 690.292969 244.222656 688.867188 C 249.695312 688.191406 251.042969 687.667969 255.84375 684.59375 C 273.757812 672.828125 285.226562 657.234375 294.222656 632.570312 C 302.84375 608.585938 308.164062 568.707031 311.089844 504.988281 C 313.1875 458.4375 314.164062 329.578125 312.4375 327.855469 C 311.015625 326.429688 279.15625 326.582031 276.457031 328.003906 Z M 276.457031 328.003906 " fill-opacity="1" fill-rule="nonzero"/><path fill="#ffffff" d="M 617.304688 349.816406 C 616.929688 349.96875 614.683594 350.644531 612.433594 351.316406 C 606.359375 353.191406 595.417969 357.914062 583.949219 363.6875 C 558.460938 376.429688 516.707031 404.765625 513.035156 411.734375 C 511.910156 413.984375 512.808594 418.933594 522.480469 462.109375 C 525.851562 477.328125 529.675781 496.367188 531.25 505.738281 C 531.851562 509.410156 531.925781 509.484375 534.625 509.710938 C 539.796875 510.160156 547.742188 505.4375 557.636719 495.992188 C 569.253906 484.898438 576.527344 473.355469 579.449219 461.511719 C 580.273438 458.210938 582.296875 446.070312 583.949219 434.523438 C 589.570312 395.019531 593.316406 386.925781 606.0625 386.925781 C 611.308594 386.925781 613.78125 388.199219 616.632812 392.320312 C 622.554688 401.015625 628.101562 401.617188 638.292969 394.644531 C 643.542969 391.046875 651.710938 382.949219 654.1875 378.902344 C 657.109375 374.03125 656.058594 368.632812 650.589844 360.988281 C 647.441406 356.714844 638.667969 351.167969 633.421875 350.191406 C 629.75 349.519531 619.03125 349.21875 617.304688 349.816406 Z M 617.304688 349.816406 " fill-opacity="1" fill-rule="nonzero"/><path fill="#ffffff" d="M 665.65625 388.871094 C 656.585938 394.046875 647.515625 407.386719 640.167969 426.277344 C 633.347656 444.042969 630.648438 467.207031 633.796875 480.402344 C 637.84375 496.96875 648.488281 507.460938 662.730469 509.035156 C 677.648438 510.609375 702.535156 504.089844 724.351562 492.769531 C 733.71875 487.972656 738.667969 483.25 746.464844 471.628906 C 751.410156 464.359375 752.535156 461.511719 751.261719 460.234375 C 750.738281 459.710938 746.6875 459.1875 742.265625 459.035156 C 732.296875 458.660156 727.5 459.9375 717.980469 465.785156 C 701.113281 476.128906 698.1875 476.878906 687.769531 473.503906 C 678.773438 470.582031 676 468.40625 674.277344 462.933594 C 671.351562 453.863281 672.703125 443.96875 679.523438 422.082031 C 683.121094 410.6875 684.246094 405.738281 685.144531 396.96875 C 686.269531 386.472656 686.570312 386.925781 677.050781 386.925781 C 669.851562 386.925781 668.652344 387.148438 665.65625 388.871094 Z M 665.65625 388.871094 " fill-opacity="1" fill-rule="nonzero"/><path fill="#ffffff" d="M 480.875 471.03125 C 477.351562 473.128906 474.503906 477.703125 474.503906 481.375 C 474.503906 485.421875 477.351562 489.695312 481.25 491.644531 C 489.570312 495.917969 499.089844 491.421875 500.515625 482.574219 C 501.039062 479.050781 498.566406 474.027344 495.042969 471.707031 C 491.144531 469.007812 484.847656 468.707031 480.875 471.03125 Z M 480.875 471.03125 " fill-opacity="1" fill-rule="nonzero"/><path fill="#ffffff" d="M 561.460938 663.980469 C 561.460938 664.355469 562.359375 666.003906 563.332031 667.652344 L 565.207031 670.652344 L 565.207031 698.238281 C 565.207031 729.195312 565.355469 730.171875 570.003906 732.121094 C 575.925781 734.59375 584.847656 732.644531 586.722656 728.523438 C 587.246094 727.398438 587.621094 722.449219 587.621094 716.828125 C 587.621094 711.429688 587.695312 706.707031 587.695312 706.332031 C 587.695312 706.035156 592.644531 705.507812 598.789062 705.285156 C 615.507812 704.683594 627.277344 701.460938 631.546875 696.363281 C 633.347656 694.265625 633.421875 693.664062 633.421875 684.671875 C 633.421875 675.375 633.347656 675.074219 631.398438 672.976562 C 628.847656 670.203125 621.578125 666.828125 614.980469 665.332031 C 609.136719 663.980469 561.460938 662.78125 561.460938 663.980469 Z M 611.535156 684.671875 L 611.308594 694.640625 L 599.539062 694.863281 L 587.769531 695.089844 L 587.546875 685.644531 C 587.394531 680.472656 587.472656 675.898438 587.546875 675.523438 C 587.695312 675.074219 592.644531 674.773438 599.765625 674.773438 L 611.757812 674.773438 Z M 611.535156 684.671875 " fill-opacity="1" fill-rule="nonzero"/><path fill="#ffffff" d="M 715.730469 663.980469 C 715.429688 664.207031 716.253906 666.003906 717.453125 668.027344 L 719.628906 671.550781 L 719.628906 696.515625 C 719.628906 724.625 719.476562 723.949219 725.398438 727.472656 C 731.171875 730.996094 738.367188 732.644531 750.136719 733.019531 C 763.253906 733.542969 772.476562 732.121094 779.671875 728.523438 C 787.167969 724.773438 787.84375 723.273438 787.84375 710.683594 C 787.84375 704.984375 787.542969 699.511719 787.167969 698.539062 C 784.394531 691.191406 769.253906 686.394531 750.8125 686.84375 L 741.367188 687.144531 L 741.214844 675.523438 L 740.992188 663.90625 L 728.546875 663.679688 C 721.726562 663.605469 715.953125 663.679688 715.730469 663.980469 Z M 765.730469 710.007812 L 765.730469 721.625 L 753.585938 721.851562 L 741.367188 722 L 741.367188 710.53125 C 741.367188 704.160156 741.589844 698.761719 741.890625 698.464844 C 742.191406 698.238281 747.664062 698.089844 754.035156 698.164062 L 765.730469 698.386719 Z M 765.730469 710.007812 " fill-opacity="1" fill-rule="nonzero"/><path fill="#ffffff" d="M 692.640625 688.34375 C 691.21875 689.242188 689.867188 690.066406 689.644531 690.292969 C 689.417969 690.515625 689.117188 697.636719 688.894531 706.109375 L 688.519531 721.625 L 676.375 721.851562 L 664.15625 722 L 664.15625 687.519531 L 637.769531 687.519531 L 639.042969 689.542969 C 639.792969 690.742188 640.84375 692.316406 641.441406 693.140625 C 642.191406 694.265625 642.417969 698.089844 642.417969 708.507812 L 642.417969 722.449219 L 644.742188 724.773438 C 649.839844 730.023438 658.308594 732.496094 673 733.019531 C 690.542969 733.695312 704.636719 729.945312 708.910156 723.574219 C 710.558594 721.175781 710.632812 720.351562 710.632812 707.007812 C 710.632812 693.742188 710.558594 692.839844 708.984375 690.890625 C 705.683594 686.621094 697.589844 685.417969 692.640625 688.34375 Z M 692.640625 688.34375 " fill-opacity="1" fill-rule="nonzero"/><path fill="#ffffff" d="M 655.910156 793.140625 C 652.835938 794.113281 649.613281 795.988281 647.964844 797.863281 C 640.019531 806.480469 642.566406 821.324219 652.761719 826.046875 C 657.785156 828.371094 666.40625 828.519531 672.101562 826.421875 L 675.773438 824.996094 L 675.773438 807.832031 L 669.253906 807.605469 L 662.65625 807.382812 L 662.65625 814.203125 L 665.65625 814.203125 C 668.578125 814.203125 668.652344 814.277344 668.652344 816.828125 C 668.652344 819.976562 667.15625 820.949219 661.984375 820.949219 C 657.109375 820.949219 654.785156 819.824219 652.761719 816.601562 C 649.6875 811.578125 650.886719 804.457031 655.386719 801.160156 C 658.085938 799.136719 665.054688 799.0625 667.980469 800.933594 C 669.851562 802.210938 669.929688 802.132812 672.402344 799.585938 C 674.5 797.410156 674.726562 796.8125 673.902344 795.835938 C 671.726562 793.214844 660.933594 791.640625 655.910156 793.140625 Z M 655.910156 793.140625 " fill-opacity="1" fill-rule="nonzero"/><path fill="#ffffff" d="M 491.746094 810.082031 L 491.746094 826.945312 L 499.242188 826.945312 L 499.316406 814.351562 L 499.390625 801.835938 L 503.515625 814.429688 L 507.710938 827.023438 L 513.710938 826.570312 L 517.90625 814.578125 L 522.105469 802.585938 L 522.328125 814.726562 L 522.480469 826.945312 L 529.976562 826.945312 L 529.976562 793.214844 L 518.882812 793.214844 L 515.359375 803.109375 C 511.160156 814.878906 510.710938 815.777344 510.1875 814.203125 C 510.035156 813.605469 508.238281 808.582031 506.289062 803.109375 L 502.839844 793.214844 L 491.746094 793.214844 Z M 491.746094 810.082031 " fill-opacity="1" fill-rule="nonzero"/><path fill="#ffffff" d="M 543.542969 804.234375 C 540.921875 810.304688 537.621094 817.953125 536.273438 821.101562 L 533.796875 826.945312 L 541.820312 826.945312 L 543.167969 823.574219 L 544.441406 820.199219 L 557.785156 820.199219 L 559.285156 823.574219 L 560.785156 826.945312 L 564.832031 826.945312 C 568.730469 826.945312 568.878906 826.871094 568.28125 825.222656 C 566.929688 821.699219 556.886719 798.6875 555.613281 796.210938 C 554.488281 793.964844 553.886719 793.589844 551.339844 793.363281 L 548.339844 793.140625 Z M 553.4375 808.730469 L 555.3125 813.304688 L 552.914062 813.605469 C 548.714844 814.054688 547.066406 813.527344 547.667969 811.804688 C 548.417969 809.253906 551.039062 803.558594 551.339844 803.859375 C 551.488281 804.007812 552.390625 806.183594 553.4375 808.730469 Z M 553.4375 808.730469 " fill-opacity="1" fill-rule="nonzero"/><path fill="#ffffff" d="M 573.226562 793.738281 C 572.929688 793.964844 572.703125 801.609375 572.703125 810.605469 L 572.703125 826.945312 L 580.125 826.945312 L 580.351562 820.351562 C 580.574219 814.277344 580.648438 813.828125 582.222656 813.605469 C 583.648438 813.378906 584.398438 814.351562 587.320312 820.125 L 590.695312 826.945312 L 595.265625 826.945312 C 599.839844 826.945312 599.839844 826.945312 598.789062 825.222656 C 595.566406 820.125 592.195312 814.277344 592.195312 813.753906 C 592.195312 813.378906 593.394531 812.328125 594.816406 811.429688 C 601.488281 807.082031 599.539062 796.738281 591.519531 794.039062 C 588.820312 793.140625 574.054688 792.839844 573.226562 793.738281 Z M 589.644531 800.785156 C 591.21875 802.058594 590.996094 805.734375 589.269531 806.707031 C 588.445312 807.082031 586.121094 807.457031 584.023438 807.457031 L 580.199219 807.457031 L 580.199219 803.859375 C 580.199219 801.835938 580.425781 799.960938 580.800781 799.660156 C 581.550781 798.835938 588.371094 799.734375 589.644531 800.785156 Z M 589.644531 800.785156 " fill-opacity="1" fill-rule="nonzero"/><path fill="#ffffff" d="M 600.214844 793.738281 C 600.066406 794.113281 599.988281 795.539062 599.988281 796.960938 L 600.066406 799.585938 L 604.785156 799.8125 L 609.433594 800.035156 L 609.433594 826.945312 L 616.929688 826.945312 L 617.082031 813.605469 L 617.304688 800.335938 L 622.027344 800.109375 L 626.675781 799.886719 L 626.675781 793.214844 L 613.632812 793.214844 C 606.4375 793.214844 600.363281 793.4375 600.214844 793.738281 Z M 600.214844 793.738281 " fill-opacity="1" fill-rule="nonzero"/><path fill="#ffffff" d="M 630.949219 793.738281 C 630.648438 793.964844 630.421875 801.609375 630.421875 810.605469 L 630.421875 826.945312 L 637.917969 826.945312 L 637.917969 793.214844 L 634.695312 793.214844 C 632.898438 793.214844 631.171875 793.4375 630.949219 793.738281 Z M 630.949219 793.738281 " fill-opacity="1" fill-rule="nonzero"/><path fill="#ffffff" d="M 682.898438 810.082031 L 682.898438 826.945312 L 689.644531 826.945312 L 689.644531 815.703125 C 689.644531 809.480469 689.941406 804.457031 690.242188 804.457031 C 690.917969 804.457031 692.714844 807.15625 700.136719 819.300781 L 704.785156 827.023438 L 709.734375 826.796875 L 714.605469 826.570312 L 714.53125 810.082031 L 714.53125 793.589844 L 711.082031 793.363281 L 707.632812 793.140625 L 707.632812 804.832031 C 707.632812 811.65625 707.335938 816.378906 706.960938 816.152344 C 706.585938 815.851562 703.210938 810.605469 699.386719 804.457031 L 692.566406 793.214844 L 682.898438 793.214844 Z M 682.898438 810.082031 " fill-opacity="1" fill-rule="nonzero"/><path fill="#ffffff" d="M 718.128906 793.8125 C 718.128906 794.261719 720.828125 798.609375 724.125 803.632812 L 730.121094 812.703125 L 730.121094 826.945312 L 737.617188 826.945312 L 737.617188 812.777344 L 743.242188 804.082031 C 746.390625 799.359375 749.085938 794.9375 749.3125 794.339844 C 749.6875 793.4375 749.011719 793.214844 745.640625 793.214844 L 741.441406 793.214844 L 738.742188 797.863281 C 735.746094 803.257812 734.019531 805.582031 733.570312 805.132812 C 733.421875 804.984375 731.769531 802.285156 729.972656 799.210938 L 726.597656 793.589844 L 722.402344 793.363281 C 720.078125 793.214844 718.128906 793.4375 718.128906 793.8125 Z M 718.128906 793.8125 " fill-opacity="1" fill-rule="nonzero"/></svg>